# xmcd
#
# Track frame offsets:
#	150
#	16787
#	36505
#	50964
#	67539
#	85532
#	108496
#	121948
#	139337
#	155328
#	163036
#	179136
#	195216
#
# Disc length: 2889 seconds
# Revision: 0
# Processed by: cddbd v1.5.2PL0 Copyright (c) Steve Scherf et al.
# Submitted via: dBpowerAMP V12.0
#
DISCID=a80b470d
DTITLE=Marisa Quigley - Marisa Quigley
DYEAR=2011
DGENRE=Blues Female
TTITLE0=Hey Baby Hey
TTITLE1=Some Kinda Fool
TTITLE2=Every Single One Of Us
TTITLE3=It's Two a.m.
TTITLE4=Hey Little Girl
TTITLE5=Does He Want Me
TTITLE6=It's a Lovely Day
TTITLE7=Dive Into You
TTITLE8=A Country Song
TTITLE9=The Hatchet Song
TTITLE10=Time Is My Weakness
TTITLE11=Wannabe
TTITLE12=Sing Me a Lullaby
EXTD=
EXTT0=
EXTT1=
EXTT2=
EXTT3=
EXTT4=
EXTT5=
EXTT6=
EXTT7=
EXTT8=
EXTT9=
EXTT10=
EXTT11=
EXTT12=
PLAYORDER=
